<svg xmlns="http://www.w3.org/2000/svg" xmlns:xlink="http://www.w3.org/1999/xlink" width="500" zoomAndPan="magnify" viewBox="0 0 375 374.999991" height="500" preserveAspectRatio="xMidYMid meet" version="1.0"><defs><clipPath id="7c362acebb"><path d="M 44.0625 37.5 L 331 37.5 L 331 337.5 L 44.0625 337.5 Z M 44.0625 37.5 " clip-rule="nonzero"/></clipPath></defs><rect x="-37.5" width="450" fill="#ffffff" y="-37.499999" height="449.999989" fill-opacity="1"/><rect x="-37.5" width="450" fill="#ffffff" y="-37.499999" height="449.999989" fill-opacity="1"/><rect x="-37.5" width="450" fill="#ffffff" y="-37.499999" height="449.999989" fill-opacity="1"/><g clip-path="url(#7c362acebb)"><path fill="#000000" d="M 297.960938 37.5 L 44.644531 37.5 L 44.644531 123.148438 L 77.152344 155.617188 L 120.910156 155.617188 L 120.910156 305.164062 L 153.421875 337.628906 L 254.203125 337.628906 L 254.203125 155.617188 L 330.472656 155.617188 L 330.472656 69.96875 Z M 297.960938 37.5 " fill-opacity="1" fill-rule="nonzero"/></g><path fill="#ffffff" d="M 57.648438 50.488281 L 284.957031 50.488281 L 284.957031 110.164062 L 208.6875 110.164062 L 208.6875 292.175781 L 133.914062 292.175781 L 133.914062 110.164062 L 57.648438 110.164062 Z M 57.648438 50.488281 " fill-opacity="1" fill-rule="nonzero"/></svg>